<svg width="24" height="24" viewBox="0 0 24 24" fill="none" xmlns="http://www.w3.org/2000/svg">
<path fill-rule="evenodd" clip-rule="evenodd" d="M11 4H10.437L10.145 4.48L6.78797 9.997H1.71997L2.02997 11.24L3.65097 17.725C3.8133 18.3739 4.18784 18.95 4.71509 19.3616C5.24234 19.7733 5.89205 19.9969 6.56097 19.997H17.44C18.1089 19.9969 18.7586 19.7733 19.2858 19.3616C19.8131 18.95 20.1876 18.3739 20.35 17.725L21.971 11.24L22.281 9.997H17.212L13.854 4.48L13.562 4H11ZM14.87 9.997L12.438 6H11.562L9.12897 9.997H14.87ZM5.59097 17.24L4.28097 11.997H19.719L18.409 17.24C18.3548 17.4562 18.2299 17.6482 18.0542 17.7853C17.8784 17.9225 17.6619 17.997 17.439 17.997H6.56197C6.33904 17.997 6.12251 17.9225 5.94676 17.7853C5.77102 17.6482 5.64614 17.4562 5.59197 17.24H5.59097Z" fill="black"/>
</svg>
