<svg width="24" height="24" viewBox="0 0 24 24" fill="none" xmlns="http://www.w3.org/2000/svg">
<path fill-rule="evenodd" clip-rule="evenodd" d="M13.747 18.177C12.948 19.774 12.215 20 12 20C11.785 20 11.052 19.774 10.253 18.177C9.9147 17.4815 9.65219 16.7516 9.47 16H14.53C14.3475 16.7515 14.085 17.4814 13.747 18.177ZM14.889 14H9.11C9.03569 13.3359 8.99896 12.6682 9 12C9 11.305 9.04 10.636 9.111 10H14.888C15.0366 11.3292 15.0369 12.6708 14.889 14ZM16.584 16C16.318 17.217 15.934 18.307 15.463 19.214C16.9148 18.5146 18.1228 17.3948 18.93 16H16.584ZM19.748 14H16.9C17.0348 12.6701 17.0348 11.3299 16.9 10H19.748C19.916 10.6534 20.0007 11.3254 20 12C20.0007 12.6746 19.916 13.3466 19.748 14ZM18.93 8C18.1228 6.60523 16.9148 5.48542 15.463 4.786C15.935 5.693 16.318 6.783 16.584 8H18.93ZM14.53 8C14.3478 7.24837 14.0853 6.51851 13.747 5.823C12.948 4.226 12.215 4 12 4C11.785 4 11.052 4.226 10.253 5.823C9.91471 6.5185 9.6522 7.24836 9.47 8H14.53ZM7.416 8C7.682 6.783 8.066 5.693 8.537 4.786C7.08518 5.48542 5.87722 6.60523 5.07 8H7.416ZM4.252 10C4.08417 10.6534 3.9995 11.3254 4 12C4 12.69 4.088 13.36 4.252 14H7.1C6.96517 12.6701 6.96517 11.3299 7.1 10H4.252ZM7.416 16H5.07C5.87722 17.3948 7.08518 18.5146 8.537 19.214C8.065 18.307 7.682 17.217 7.416 16ZM22 12C22 6.477 17.523 2 12 2C6.477 2 2 6.477 2 12C2 17.523 6.477 22 12 22C17.523 22 22 17.523 22 12Z" fill="black"/>
</svg>
