<svg width="24" height="24" viewBox="0 0 24 24" fill="none" xmlns="http://www.w3.org/2000/svg">
<path d="M12 9.5C12.3315 9.5 12.6495 9.3683 12.8839 9.13388C13.1183 8.89946 13.25 8.58152 13.25 8.25C13.25 7.91848 13.1183 7.60054 12.8839 7.36612C12.6495 7.1317 12.3315 7 12 7C11.6685 7 11.3505 7.1317 11.1161 7.36612C10.8817 7.60054 10.75 7.91848 10.75 8.25C10.75 8.58152 10.8817 8.89946 11.1161 9.13388C11.3505 9.3683 11.6685 9.5 12 9.5ZM11 11V17H13V11H11Z" fill="black"/>
<path fill-rule="evenodd" clip-rule="evenodd" d="M12 2C6.477 2 2 6.477 2 12C2 17.523 6.477 22 12 22C17.523 22 22 17.523 22 12C22 6.477 17.523 2 12 2ZM4 12C4 9.87827 4.84285 7.84344 6.34315 6.34315C7.84344 4.84285 9.87827 4 12 4C14.1217 4 16.1566 4.84285 17.6569 6.34315C19.1571 7.84344 20 9.87827 20 12C20 14.1217 19.1571 16.1566 17.6569 17.6569C16.1566 19.1571 14.1217 20 12 20C9.87827 20 7.84344 19.1571 6.34315 17.6569C4.84285 16.1566 4 14.1217 4 12Z" fill="black"/>
</svg>
