<svg width="24" height="24" viewBox="0 0 24 24" fill="none" xmlns="http://www.w3.org/2000/svg">
<path fill-rule="evenodd" clip-rule="evenodd" d="M8.85295 15.146C10.641 16.933 13.005 18.21 14.838 19.012C16.065 19.549 17.518 19.208 18.558 18.169L19.666 17.061L16.299 14.771L15.619 15.451C15.185 15.886 14.509 16.148 13.803 15.945C13.018 15.72 11.586 15.151 10.217 13.782C8.84795 12.412 8.27895 10.981 8.05395 10.196C7.85095 9.491 8.11395 8.81499 8.54695 8.38099L9.22695 7.7L6.93795 4.333L5.82995 5.44C4.79095 6.48 4.44995 7.93299 4.98695 9.16C5.78895 10.993 7.06595 13.357 8.85295 15.145V15.146ZM14.037 20.845C12.1049 20 9.48195 18.602 7.43895 16.56C5.39695 14.517 3.99995 11.894 3.15395 9.962C2.23795 7.865 2.88895 5.554 4.41495 4.027L6.37995 2.064L7.91395 2.209L11.3479 7.259L11.228 8.529L10.008 9.74899C10.189 10.329 10.628 11.363 11.632 12.368C12.637 13.372 13.6709 13.811 14.252 13.992L15.471 12.772L16.7409 12.652L21.791 16.086L21.936 17.62L19.9729 19.584C18.4459 21.11 16.135 21.761 14.038 20.844L14.037 20.845Z" fill="black"/>
</svg>
