<svg width="24" height="24" viewBox="0 0 24 24" fill="none" xmlns="http://www.w3.org/2000/svg">
<path fill-rule="evenodd" clip-rule="evenodd" d="M10.672 6.468C10.946 6.187 11.352 5.998 12.022 5.998C12.419 5.998 12.727 6.081 12.975 6.22C13.215 6.354 13.413 6.55 13.568 6.839L13.571 6.845C13.711 7.099 13.808 7.463 13.808 7.985C13.808 8.771 13.604 9.23 13.328 9.513L13.324 9.518C13.048 9.806 12.644 9.994 11.99 9.994C11.604 9.994 11.294 9.912 11.034 9.77C10.7822 9.62693 10.5775 9.41357 10.445 9.156C10.3 8.881 10.203 8.504 10.203 7.986C10.203 7.195 10.407 6.741 10.673 6.468H10.672ZM12.022 3.996C10.938 3.996 9.968 4.322 9.238 5.073C8.5 5.831 8.202 6.853 8.202 7.985C8.202 8.751 8.345 9.468 8.679 10.097L8.683 10.103C8.99614 10.6974 9.4743 11.1888 10.06 11.518L10.066 11.522C10.6566 11.841 11.3188 12.0038 11.99 11.995C13.072 11.995 14.038 11.662 14.765 10.905C15.506 10.143 15.809 9.12 15.809 7.985C15.809 7.222 15.667 6.507 15.327 5.885C15.0137 5.2918 14.5359 4.80155 13.951 4.473C13.366 4.145 12.713 3.996 12.021 3.996H12.022ZM6.469 16.858C6.75658 16.2889 7.20519 15.817 7.759 15.501C8.317 15.181 9.042 14.996 9.98 14.996H14.02C14.958 14.996 15.683 15.182 16.24 15.501C16.808 15.831 17.233 16.278 17.53 16.858C17.834 17.448 18 18.152 18 18.996V19.996H20V18.996C20 17.884 19.78 16.858 19.31 15.944C18.8426 15.0342 18.1228 14.2784 17.237 13.767C16.31 13.235 15.222 12.997 14.02 12.997H9.98C8.866 12.997 7.732 13.208 6.758 13.77C5.87185 14.2781 5.15316 15.0336 4.69 15.944C4.22 16.858 4 17.884 4 18.996V19.996H6V18.996C6 18.152 6.166 17.448 6.47 16.858H6.469Z" fill="black"/>
</svg>
