<svg width="24" height="24" viewBox="0 0 24 24" fill="none" xmlns="http://www.w3.org/2000/svg">
<path fill-rule="evenodd" clip-rule="evenodd" d="M13.98 15.395C12.6975 16.322 11.1129 16.7319 9.54175 16.543C7.9706 16.3541 6.52827 15.5803 5.50202 14.3757C4.47578 13.1712 3.94094 11.6242 4.00403 10.043C4.06713 8.46183 4.72353 6.96242 5.8425 5.84346C6.96146 4.72449 8.46087 4.06809 10.0421 4.00499C11.6233 3.9419 13.1702 4.47674 14.3748 5.50298C15.5793 6.52923 16.3531 7.97157 16.542 9.54271C16.7309 11.1139 16.321 12.6985 15.394 13.981L19.996 18.582L18.582 19.996L13.98 15.395ZM14.587 10.294C14.5957 10.8633 14.4911 11.4287 14.2792 11.9573C14.0674 12.4858 13.7525 12.9669 13.3529 13.3726C12.9534 13.7783 12.4771 14.1005 11.9519 14.3204C11.4267 14.5403 10.863 14.6535 10.2935 14.6535C9.72413 14.6535 9.16041 14.5403 8.63518 14.3204C8.10995 14.1005 7.6337 13.7783 7.23415 13.3726C6.8346 12.9669 6.51973 12.4858 6.30786 11.9573C6.09599 11.4287 5.99135 10.8633 6.00004 10.294C6.01725 9.16665 6.47717 8.09128 7.28048 7.30013C8.0838 6.50899 9.16605 6.06553 10.2935 6.06553C11.421 6.06553 12.5033 6.50899 13.3066 7.30013C14.1099 8.09128 14.5698 9.16665 14.587 10.294Z" fill="#111111"/>
</svg>
